HIERARCHY
ROOT Hips
{
	OFFSET -0.001795 -0.223333 0.028219
	CHANNELS 6 Xposition Yposition Zposition Zrotation Yrotation Xrotation 
	JOINT LeftUpLeg
	{
		OFFSET 0.069520 -0.091406 -0.006815
		CHANNELS 3 Zrotation Yrotation Xrotation
		JOINT LeftLeg
		{
			OFFSET 0.034277 -0.375199 -0.004496
			CHANNELS 3 Zrotation Yrotation Xrotation
			JOINT LeftFoot
			{
				OFFSET -0.013596 -0.397961 -0.043693
				CHANNELS 3 Zrotation Yrotation Xrotation
				JOINT LeftToe
				{
					OFFSET 0.026358 -0.055791 0.119288
					CHANNELS 3 Zrotation Yrotation Xrotation
					End Site
					{
						OFFSET 0.000000 0.000000 0.000000
					}
				}
			}
		}
	}
	JOINT RightUpLeg
	{
		OFFSET -0.067670 -0.090522 -0.004320
		CHANNELS 3 Zrotation Yrotation Xrotation
		JOINT RightLeg
		{
			OFFSET -0.038290 -0.382569 -0.008850
			CHANNELS 3 Zrotation Yrotation Xrotation
			JOINT RightFoot
			{
				OFFSET 0.015774 -0.398415 -0.042312
				CHANNELS 3 Zrotation Yrotation Xrotation
				JOINT RightToe
				{
					OFFSET -0.025372 -0.048144 0.123348
					CHANNELS 3 Zrotation Yrotation Xrotation
					End Site
					{
						OFFSET 0.000000 0.000000 0.000000
					}
				}
			}
		}
	}
	JOINT Spine
	{
		OFFSET -0.002533 0.108963 -0.026696
		CHANNELS 3 Zrotation Yrotation Xrotation
		JOINT Spine1
		{
			OFFSET 0.005487 0.135180 0.001092
			CHANNELS 3 Zrotation Yrotation Xrotation
			JOINT Spine2
			{
				OFFSET 0.001457 0.052922 0.025425
				CHANNELS 3 Zrotation Yrotation Xrotation
				JOINT Neck
				{
					OFFSET -0.002778 0.213870 -0.042857
					CHANNELS 3 Zrotation Yrotation Xrotation
					JOINT Head
					{
						OFFSET 0.005152 0.064970 0.051349
						CHANNELS 3 Zrotation Yrotation Xrotation
						End Site
						{
							OFFSET 0.000000 0.000000 0.000000
						}
					}
				}
				JOINT LeftShoulder
				{
					OFFSET 0.078845 0.121749 -0.034090
					CHANNELS 3 Zrotation Yrotation Xrotation
					JOINT LeftArm
					{
						OFFSET 0.090977 0.030469 -0.008868
						CHANNELS 3 Zrotation Yrotation Xrotation
						JOINT LeftForeArm
						{
							OFFSET 0.259612 -0.012772 -0.027456
							CHANNELS 3 Zrotation Yrotation Xrotation
							JOINT LeftHand
							{
								OFFSET 0.249234 0.008986 -0.001171
								CHANNELS 3 Zrotation Yrotation Xrotation
								End Site
								{
									OFFSET 0.000000 0.000000 0.000000
								}
							}
						}
					}
				}
				JOINT RightShoulder
				{
					OFFSET -0.081759 0.118833 -0.038615
					CHANNELS 3 Zrotation Yrotation Xrotation
					JOINT RightArm
					{
						OFFSET -0.096012 0.032551 -0.009143
						CHANNELS 3 Zrotation Yrotation Xrotation
						JOINT RightForeArm
						{
							OFFSET -0.253742 -0.013329 -0.021401
							CHANNELS 3 Zrotation Yrotation Xrotation
							JOINT RightHand
							{
								OFFSET -0.255298 0.007772 -0.005559
								CHANNELS 3 Zrotation Yrotation Xrotation
								End Site
								{
									OFFSET 0.000000 0.000000 0.000000
								}
							}
						}
					}
				}
			}
		}
	}
}
MOTION
Frames: 13
Frame Time: 0.050000
0.004900 0.948088 -0.019440 -1.141871 -6.920633 -0.341138 0.280090 0.541125 5.525289 -0.163940 0.204038 -5.473533 -2.764626 -3.880751 4.434012 0.000000 0.000000 0.000000 1.294034 -0.216500 1.666110 -2.521033 0.274794 0.562131 4.974793 9.391479 3.895192 0.000000 0.000000 0.000000 5.534572 -0.208630 2.082747 -1.778887 0.842508 -0.931533 -4.383708 7.446136 2.831187 9.299632 -2.737132 -22.866800 0.000000 0.000000 0.000000 -24.232956 -2.940244 -2.368142 -48.504819 -6.875100 -2.456634 -7.385480 -18.262055 1.683128 0.000000 0.000000 0.000000 22.952513 -4.207510 -3.267885 54.193602 3.966510 -3.658838 7.142086 20.980710 2.066470 0.000000 0.000000 0.000000 
0.004777 0.948274 -0.020783 -1.134126 -6.767317 -0.324794 0.151845 0.540652 5.471735 0.011600 0.184504 -5.305473 -2.988741 -4.379282 4.298598 0.000000 0.000000 0.000000 1.195230 -0.204721 1.595562 -2.343976 0.254606 0.517853 4.770976 9.032644 3.748541 0.000000 0.000000 0.000000 5.688854 -0.214739 2.111296 -1.877225 0.888953 -0.969745 -4.565479 7.513759 2.859841 9.498367 -2.799726 -23.004045 0.000000 0.000000 0.000000 -24.074770 -3.055653 -2.336948 -48.361697 -6.712904 -2.501975 -7.995328 -18.322253 1.778579 0.000000 0.000000 0.000000 22.845629 -4.272479 -3.241681 54.515256 3.964377 -3.684564 7.354310 20.850451 2.095111 0.000000 0.000000 0.000000 
0.004702 0.948176 -0.022062 -1.090395 -6.600150 -0.181011 0.163609 0.526041 5.347846 0.085225 0.179081 -5.310379 -3.082397 -4.618797 4.166031 0.000000 0.000000 0.000000 1.119893 -0.177400 1.356805 -2.283682 0.245880 0.468615 4.598985 8.686912 3.679226 0.000000 0.000000 0.000000 5.804530 -0.201359 1.900637 -1.916685 0.909273 -0.876663 -4.752611 7.637207 2.850355 9.570276 -2.846709 -22.787748 0.000000 0.000000 0.000000 -23.828389 -3.204402 -2.297419 -48.521491 -6.426598 -2.606047 -8.312644 -18.550689 1.841725 0.000000 0.000000 0.000000 22.650531 -4.329377 -3.185087 54.928885 3.902453 -3.735907 7.677324 20.807065 2.155232 0.000000 0.000000 0.000000 
0.004690 0.948162 -0.023201 -1.063071 -6.478996 -0.053793 -0.003675 0.538144 5.396992 0.043504 0.183845 -5.353624 -3.042560 -4.670228 3.876459 0.000000 0.000000 0.000000 0.914590 -0.158085 1.251475 -2.175262 0.239407 0.536120 4.244222 8.003859 3.473406 0.000000 0.000000 0.000000 5.875219 -0.193456 1.766125 -2.052978 0.971950 -1.007966 -4.798673 7.736964 3.194007 9.671450 -2.863658 -22.957421 0.000000 0.000000 0.000000 -23.585279 -3.118234 -2.343500 -48.631495 -6.408074 -2.645889 -8.678514 -18.806007 1.922670 0.000000 0.000000 0.000000 22.644993 -4.466677 -3.210839 54.960559 4.154606 -3.663909 8.051312 20.516383 2.191669 0.000000 0.000000 0.000000 
0.004870 0.947795 -0.024087 -0.988930 -6.496390 -0.011935 -0.191496 0.562444 5.539063 -0.102765 0.194403 -5.343246 -2.955596 -4.648664 3.556956 0.000000 0.000000 0.000000 0.789419 -0.152121 1.245707 -2.347486 0.243274 0.320821 4.145326 7.871596 3.336267 0.000000 0.000000 0.000000 5.952691 -0.192435 1.730744 -2.154237 1.017740 -1.124486 -4.979481 7.939855 3.438142 9.793048 -2.892759 -23.066972 0.000000 0.000000 0.000000 -23.580675 -3.354390 -2.268411 -48.508711 -6.332407 -2.668361 -8.747856 -18.918292 1.940261 0.000000 0.000000 0.000000 22.663869 -4.307284 -3.046645 54.972408 4.198023 -3.684711 8.174631 20.636842 2.237586 0.000000 0.000000 0.000000 
0.005374 0.947280 -0.024581 -0.988463 -6.234943 0.140880 -0.351186 0.583300 5.675445 -0.226159 0.201950 -5.303381 -2.661894 -4.364345 2.872989 0.000000 0.000000 0.000000 0.585771 -0.118180 0.987927 -2.387001 0.269485 0.661485 3.735689 7.488681 2.577642 0.000000 0.000000 0.000000 5.999767 -0.166422 1.397551 -2.203328 1.039972 -1.221970 -5.063510 7.943670 3.781224 9.897230 -2.964227 -22.945668 0.000000 0.000000 0.000000 -23.404736 -3.557914 -2.155870 -48.716201 -6.060035 -2.813332 -8.986611 -19.380308 2.025014 0.000000 0.000000 0.000000 22.483969 -4.210118 -2.923453 54.906820 4.173415 -3.726702 8.890955 20.840702 2.394159 0.000000 0.000000 0.000000 
0.006361 0.946462 -0.024453 -1.025721 -6.117658 0.049770 -0.637417 0.626351 5.939715 -0.403401 0.214466 -5.285316 -2.330651 -3.956917 2.280587 0.000000 0.000000 0.000000 0.387730 -0.115756 1.050613 -2.523296 0.295391 0.835947 3.601275 7.574426 2.057331 0.000000 0.000000 0.000000 6.259474 -0.149227 1.199362 -2.456405 1.163501 -1.029985 -5.166815 7.834493 3.793950 9.675912 -2.867491 -22.826470 0.000000 0.000000 0.000000 -23.225197 -3.801670 -1.984604 -48.934515 -6.144927 -2.803098 -8.768040 -19.087843 1.960352 0.000000 0.000000 0.000000 22.303978 -3.727448 -2.632076 54.815419 4.075637 -3.759263 9.120928 20.831997 2.426106 0.000000 0.000000 0.000000 
0.007940 0.945633 -0.023364 -1.127719 -5.927457 0.034580 -0.892988 0.649478 6.032801 -0.363688 0.197727 -4.893365 -1.960952 -3.419865 1.767111 0.000000 0.000000 0.000000 0.295494 -0.093390 0.858589 -2.470938 0.328572 1.423547 3.329974 7.302910 1.556016 0.000000 0.000000 0.000000 6.447904 -0.117418 0.847688 -2.558795 1.214267 -0.936188 -5.116718 7.890551 3.964579 9.520579 -2.913699 -22.027804 0.000000 0.000000 0.000000 -23.293830 -4.039498 -1.901599 -49.067085 -6.023268 -2.857836 -8.719206 -18.813795 1.921437 0.000000 0.000000 0.000000 22.270049 -3.985379 -2.736285 54.724574 4.113670 -3.759347 9.284403 20.661643 2.438919 0.000000 0.000000 0.000000 
0.010068 0.945100 -0.020951 -1.230471 -5.688135 0.064594 -1.131613 0.673389 6.138395 -0.456856 0.191713 -4.501068 -1.742975 -3.344690 0.930750 0.000000 0.000000 0.000000 0.063345 -0.052544 0.526354 -2.397280 0.377076 2.286179 3.103109 7.030439 1.188731 0.000000 0.000000 0.000000 6.528095 -0.082765 0.475030 -2.507188 1.194299 -0.717414 -5.057342 7.827811 3.822781 9.500752 -2.961004 -21.635640 0.000000 0.000000 0.000000 -23.103221 -3.958934 -1.945443 -49.229750 -5.803435 -2.945923 -8.863939 -18.526652 1.911316 0.000000 0.000000 0.000000 22.274688 -4.069607 -2.772146 54.387580 3.895520 -3.830440 9.398341 20.788824 2.477216 0.000000 0.000000 0.000000 
0.012400 0.944240 -0.017093 -1.384204 -4.921528 -0.068704 -1.049110 0.725807 6.704721 -0.567176 0.194419 -4.335515 -1.906040 -3.911824 0.461751 0.000000 0.000000 0.000000 0.303686 0.005351 -0.149793 -2.437542 0.552123 4.802406 2.191722 6.167008 -0.704293 0.000000 0.000000 0.000000 6.461342 -0.049556 0.146494 -2.308982 1.105578 -0.415301 -5.140399 7.506575 3.515279 9.842026 -3.306873 -20.680478 0.000000 0.000000 0.000000 -23.105892 -4.267085 -1.823390 -49.154001 -4.959237 -3.238226 -8.962196 -18.878987 1.957182 0.000000 0.000000 0.000000 22.757341 -4.440198 -3.000373 54.190227 3.489156 -3.995518 8.343892 21.182054 2.353929 0.000000 0.000000 0.000000 
0.014775 0.943325 -0.011955 -1.547872 -4.116790 -0.189881 -0.661041 0.750732 7.240521 -0.847203 0.206405 -4.003882 -2.134486 -4.995302 -0.667405 0.000000 0.000000 0.000000 0.439063 0.163164 -1.733017 -2.405640 0.827513 8.858892 1.409946 5.462236 -2.538210 0.000000 0.000000 0.000000 6.393992 -0.034555 -0.000955 -2.058257 0.984149 -0.770695 -5.150554 7.246116 3.668028 9.979481 -3.438040 -20.338396 0.000000 0.000000 0.000000 -22.619174 -3.831345 -2.034403 -48.735036 -4.481896 -3.411979 -10.797034 -19.404658 2.306944 0.000000 0.000000 0.000000 22.613569 -5.187773 -3.386104 54.577665 2.634779 -4.402941 8.146901 21.509724 2.377710 0.000000 0.000000 0.000000 
0.016903 0.941795 -0.006186 -1.546767 -3.039192 -0.538830 -0.493523 0.838416 8.310678 -1.018918 0.217227 -3.944617 -3.104214 -7.271076 -0.858522 0.000000 0.000000 0.000000 1.164843 0.445406 -4.345397 -2.957682 1.390842 14.990507 0.865107 4.763287 -3.692269 0.000000 0.000000 0.000000 5.973684 -0.049773 0.223772 -1.897938 0.912367 -0.434545 -5.188801 6.629487 3.625948 9.975385 -3.484447 -20.099570 0.000000 0.000000 0.000000 -22.357479 -3.827659 -1.985772 -48.436938 -4.234010 -3.491051 -10.702597 -19.099464 2.257128 0.000000 0.000000 0.000000 22.978735 -5.132939 -3.390912 54.804809 3.032282 -4.251285 7.052944 22.185568 2.269971 0.000000 0.000000 0.000000 
0.018500 0.940395 0.000244 -1.479272 -2.408210 -1.538509 0.042200 0.949678 9.970396 -1.710475 0.267598 -3.719952 -3.553284 -8.391343 -1.023212 0.000000 0.000000 0.000000 1.467402 0.848910 -7.778492 -3.660396 2.366402 24.349846 0.588661 4.178430 -4.034567 0.000000 0.000000 0.000000 5.025790 -0.167778 1.879934 -1.320475 0.644639 -1.351326 -5.188726 6.936701 4.760791 9.938212 -3.298203 -20.831976 0.000000 0.000000 0.000000 -22.433025 -3.862063 -2.123699 -47.208747 -4.353386 -3.377350 -11.855466 -20.119074 2.556129 0.000000 0.000000 0.000000 23.289534 -5.281531 -3.289332 54.593254 4.027906 -3.979611 7.003282 22.829458 2.385116 0.000000 0.000000 0.000000 
